<svg version="1.0" xmlns="http://www.w3.org/2000/svg" width="96.000000pt" height="34.000000pt" viewBox="0 0 96.000000 34.000000" preserveAspectRatio="xMidYMid meet">
  <g transform="translate(-19.000000,62.000000) scale(0.100000,-0.100000)" stroke="none" fill="#ff523b">
    <path d="M210 450 l0 -170 35 0 35 0 0 63 c0 35 3 66 6 69 15 15 44 -9 80 -67
            37 -60 41 -64 77 -65 20 0 37 2 37 5 0 12 -68 111 -88 129 l-21 18 32 22 c62
            42 58 124 -8 151 -20 9 -66 15 -110 15 l-75 0 0 -170z m141 110 c45 -25 9
            -100 -48 -100 -21 0 -23 4 -23 55 0 52 1 55 26 55 14 0 34 -5 45 -10z"/>
    <path d="M555 450 l0 -170 98 0 97 0 0 30 0 30 -66 0 -65 0 3 43 3 42 55 1
            c52 1 55 2 58 27 3 27 2 27 -57 27 l-61 0 0 40 0 39 62 3 c59 3 61 4 62 31 l2
            27 -96 0 -95 0 0 -170z"/>
    <path d="M850 500 l0 -120 35 0 35 0 0 120 0 120 -35 0 -35 0 0 -120z"/>
    <path d="M960 590 c0 -26 4 -30 26 -30 41 0 84 -50 84 -99 0 -89 -39 -121
            -150 -121 l-70 0 0 -31 0 -32 89 5 c102 6 142 24 179 79 21 29 23 44 20 106
            -3 63 -7 76 -32 102 -16 16 -47 34 -71 40 -67 17 -75 15 -75 -19z"/>
  </g>
</svg>